<mxfile host="Electron" modified="2024-04-26T17:51:10.681Z" agent="Mozilla/5.0 (X11; Linux x86_64) AppleWebKit/537.36 (KHTML, like Gecko) draw.io/24.2.5 Chrome/120.0.6099.109 Electron/28.1.0 Safari/537.36" etag="dTf8FMdKHs-iOTV5WlnP" version="24.2.5" type="device">
  <diagram name="PÃ¡gina-1" id="eLkDxXY-62TLMYeRFwhm">
    <mxGraphModel dx="778" dy="481" grid="1" gridSize="10" guides="1" tooltips="1" connect="1" arrows="1" fold="1" page="1" pageScale="1" pageWidth="1169" pageHeight="827" math="0" shadow="0">
      <root>
        <mxCell id="0" />
        <mxCell id="1" parent="0" />
        <mxCell id="9aIz3eH4mraqbj3gu_Gu-21" value="" style="rounded=0;whiteSpace=wrap;html=1;" parent="1" vertex="1">
          <mxGeometry x="296" y="120" width="100" height="459" as="geometry" />
        </mxCell>
        <mxCell id="9aIz3eH4mraqbj3gu_Gu-1" value="" style="rounded=0;whiteSpace=wrap;html=1;" parent="1" vertex="1">
          <mxGeometry x="80" y="120" width="100" height="459" as="geometry" />
        </mxCell>
        <mxCell id="9aIz3eH4mraqbj3gu_Gu-2" value="&lt;b&gt;nodeA&lt;/b&gt;" style="text;html=1;align=center;verticalAlign=middle;whiteSpace=wrap;rounded=0;" parent="1" vertex="1">
          <mxGeometry x="110" y="83" width="60" height="30" as="geometry" />
        </mxCell>
        <mxCell id="9aIz3eH4mraqbj3gu_Gu-3" value="M2" style="rounded=0;whiteSpace=wrap;html=1;fillColor=#ffe6cc;strokeColor=#d79b00;" parent="1" vertex="1">
          <mxGeometry x="90" y="289" width="30" height="30" as="geometry" />
        </mxCell>
        <mxCell id="9aIz3eH4mraqbj3gu_Gu-4" value="M0" style="rounded=0;whiteSpace=wrap;html=1;fillColor=#dae8fc;strokeColor=#6c8ebf;" parent="1" vertex="1">
          <mxGeometry x="90" y="229" width="30" height="30" as="geometry" />
        </mxCell>
        <mxCell id="9aIz3eH4mraqbj3gu_Gu-5" value="M1" style="rounded=0;whiteSpace=wrap;html=1;fillColor=none;strokeColor=#6c8ebf;" parent="1" vertex="1">
          <mxGeometry x="90" y="259" width="30" height="30" as="geometry" />
        </mxCell>
        <mxCell id="9aIz3eH4mraqbj3gu_Gu-9" style="edgeStyle=orthogonalEdgeStyle;rounded=0;orthogonalLoop=1;jettySize=auto;html=1;exitX=1;exitY=0.5;exitDx=0;exitDy=0;entryX=1;entryY=0.5;entryDx=0;entryDy=0;fillColor=#dae8fc;strokeColor=#6c8ebf;" parent="1" source="9aIz3eH4mraqbj3gu_Gu-6" target="9aIz3eH4mraqbj3gu_Gu-4" edge="1">
          <mxGeometry relative="1" as="geometry">
            <Array as="points">
              <mxPoint x="170" y="510" />
              <mxPoint x="170" y="244" />
            </Array>
          </mxGeometry>
        </mxCell>
        <mxCell id="9aIz3eH4mraqbj3gu_Gu-6" value="Q0" style="rounded=0;whiteSpace=wrap;html=1;fillColor=#dae8fc;strokeColor=#6c8ebf;" parent="1" vertex="1">
          <mxGeometry x="124" y="495" width="30" height="30" as="geometry" />
        </mxCell>
        <mxCell id="9aIz3eH4mraqbj3gu_Gu-8" value="&lt;div&gt;QSource&lt;br&gt;&lt;/div&gt;" style="rounded=0;whiteSpace=wrap;html=1;rotation=-90;fillColor=none;labelPosition=center;verticalLabelPosition=top;align=center;verticalAlign=bottom;labelBackgroundColor=default;" parent="1" vertex="1">
          <mxGeometry x="100.04" y="500.04" width="80.93" height="39" as="geometry" />
        </mxCell>
        <mxCell id="9aIz3eH4mraqbj3gu_Gu-11" style="edgeStyle=orthogonalEdgeStyle;rounded=0;orthogonalLoop=1;jettySize=auto;html=1;exitX=1;exitY=0.5;exitDx=0;exitDy=0;entryX=0;entryY=0.5;entryDx=0;entryDy=0;fillColor=#dae8fc;strokeColor=#6c8ebf;" parent="1" source="9aIz3eH4mraqbj3gu_Gu-7" target="9aIz3eH4mraqbj3gu_Gu-10" edge="1">
          <mxGeometry relative="1" as="geometry" />
        </mxCell>
        <mxCell id="9aIz3eH4mraqbj3gu_Gu-7" value="Q1" style="rounded=0;whiteSpace=wrap;html=1;fillColor=#dae8fc;strokeColor=#6c8ebf;" parent="1" vertex="1">
          <mxGeometry x="124" y="525" width="30" height="30" as="geometry" />
        </mxCell>
        <mxCell id="9aIz3eH4mraqbj3gu_Gu-19" style="edgeStyle=orthogonalEdgeStyle;rounded=0;orthogonalLoop=1;jettySize=auto;html=1;exitX=1;exitY=0.5;exitDx=0;exitDy=0;entryX=0;entryY=0.5;entryDx=0;entryDy=0;fillColor=#dae8fc;strokeColor=#6c8ebf;" parent="1" source="9aIz3eH4mraqbj3gu_Gu-10" target="9aIz3eH4mraqbj3gu_Gu-16" edge="1">
          <mxGeometry relative="1" as="geometry" />
        </mxCell>
        <mxCell id="9aIz3eH4mraqbj3gu_Gu-10" value="" style="ellipse;whiteSpace=wrap;html=1;aspect=fixed;fillColor=#66B2FF;strokeColor=#6c8ebf;" parent="1" vertex="1">
          <mxGeometry x="175" y="535" width="10" height="10" as="geometry" />
        </mxCell>
        <mxCell id="9aIz3eH4mraqbj3gu_Gu-121" style="edgeStyle=orthogonalEdgeStyle;rounded=0;orthogonalLoop=1;jettySize=auto;html=1;exitX=1;exitY=0.5;exitDx=0;exitDy=0;fillColor=#dae8fc;strokeColor=#6c8ebf;strokeWidth=2;" parent="1" source="9aIz3eH4mraqbj3gu_Gu-12" edge="1">
          <mxGeometry relative="1" as="geometry">
            <mxPoint x="290" y="236" as="targetPoint" />
          </mxGeometry>
        </mxCell>
        <mxCell id="9aIz3eH4mraqbj3gu_Gu-12" value="" style="ellipse;whiteSpace=wrap;html=1;aspect=fixed;fillColor=#66B2FF;strokeColor=#6c8ebf;" parent="1" vertex="1">
          <mxGeometry x="175" y="231" width="10" height="10" as="geometry" />
        </mxCell>
        <mxCell id="9aIz3eH4mraqbj3gu_Gu-14" value="Quantum&lt;div&gt;Channel&lt;/div&gt;" style="rounded=0;whiteSpace=wrap;html=1;" parent="1" vertex="1">
          <mxGeometry x="210" y="520" width="60" height="40" as="geometry" />
        </mxCell>
        <mxCell id="9aIz3eH4mraqbj3gu_Gu-16" value="" style="ellipse;whiteSpace=wrap;html=1;aspect=fixed;fillColor=#66B2FF;strokeColor=#6c8ebf;" parent="1" vertex="1">
          <mxGeometry x="205" y="535" width="10" height="10" as="geometry" />
        </mxCell>
        <mxCell id="9aIz3eH4mraqbj3gu_Gu-37" style="edgeStyle=orthogonalEdgeStyle;rounded=0;orthogonalLoop=1;jettySize=auto;html=1;exitX=1;exitY=0.5;exitDx=0;exitDy=0;fillColor=#dae8fc;strokeColor=#6c8ebf;" parent="1" source="9aIz3eH4mraqbj3gu_Gu-20" edge="1">
          <mxGeometry relative="1" as="geometry">
            <mxPoint x="290" y="540" as="targetPoint" />
          </mxGeometry>
        </mxCell>
        <mxCell id="9aIz3eH4mraqbj3gu_Gu-20" value="" style="ellipse;whiteSpace=wrap;html=1;aspect=fixed;fillColor=#66B2FF;strokeColor=#6c8ebf;" parent="1" vertex="1">
          <mxGeometry x="265" y="535" width="10" height="10" as="geometry" />
        </mxCell>
        <mxCell id="9aIz3eH4mraqbj3gu_Gu-22" value="&lt;b&gt;sw1&lt;/b&gt;" style="text;html=1;align=center;verticalAlign=middle;whiteSpace=wrap;rounded=0;" parent="1" vertex="1">
          <mxGeometry x="326" y="83" width="60" height="30" as="geometry" />
        </mxCell>
        <mxCell id="9aIz3eH4mraqbj3gu_Gu-24" value="MA" style="rounded=0;whiteSpace=wrap;html=1;fillColor=#dae8fc;strokeColor=#6c8ebf;" parent="1" vertex="1">
          <mxGeometry x="321" y="347" width="30" height="30" as="geometry" />
        </mxCell>
        <mxCell id="9aIz3eH4mraqbj3gu_Gu-25" value="MB" style="rounded=0;whiteSpace=wrap;html=1;fillColor=#dae8fc;strokeColor=#6c8ebf;" parent="1" vertex="1">
          <mxGeometry x="321" y="377" width="30" height="30" as="geometry" />
        </mxCell>
        <mxCell id="9aIz3eH4mraqbj3gu_Gu-28" value="&lt;div&gt;QSource&lt;br&gt;&lt;/div&gt;" style="rounded=0;whiteSpace=wrap;html=1;rotation=-90;fillColor=none;labelPosition=center;verticalLabelPosition=top;align=center;verticalAlign=bottom;labelBackgroundColor=default;" parent="1" vertex="1">
          <mxGeometry x="314.13" y="500.13" width="80.75" height="39" as="geometry" />
        </mxCell>
        <mxCell id="9aIz3eH4mraqbj3gu_Gu-42" style="edgeStyle=orthogonalEdgeStyle;rounded=0;orthogonalLoop=1;jettySize=auto;html=1;exitX=1;exitY=0.5;exitDx=0;exitDy=0;entryX=1;entryY=0.5;entryDx=0;entryDy=0;fillColor=#dae8fc;strokeColor=#6c8ebf;" parent="1" source="9aIz3eH4mraqbj3gu_Gu-27" target="9aIz3eH4mraqbj3gu_Gu-24" edge="1">
          <mxGeometry relative="1" as="geometry">
            <Array as="points">
              <mxPoint x="380" y="510" />
              <mxPoint x="380" y="362" />
            </Array>
          </mxGeometry>
        </mxCell>
        <mxCell id="9aIz3eH4mraqbj3gu_Gu-27" value="Q0" style="rounded=0;whiteSpace=wrap;html=1;fillColor=#dae8fc;strokeColor=#6c8ebf;" parent="1" vertex="1">
          <mxGeometry x="340" y="495" width="30" height="30" as="geometry" />
        </mxCell>
        <mxCell id="9aIz3eH4mraqbj3gu_Gu-29" style="edgeStyle=orthogonalEdgeStyle;rounded=0;orthogonalLoop=1;jettySize=auto;html=1;exitX=1;exitY=0.5;exitDx=0;exitDy=0;entryX=0;entryY=0.5;entryDx=0;entryDy=0;fillColor=#dae8fc;strokeColor=#6c8ebf;" parent="1" source="9aIz3eH4mraqbj3gu_Gu-30" target="9aIz3eH4mraqbj3gu_Gu-32" edge="1">
          <mxGeometry relative="1" as="geometry" />
        </mxCell>
        <mxCell id="9aIz3eH4mraqbj3gu_Gu-30" value="Q1" style="rounded=0;whiteSpace=wrap;html=1;fillColor=#dae8fc;strokeColor=#6c8ebf;" parent="1" vertex="1">
          <mxGeometry x="340" y="525" width="30" height="30" as="geometry" />
        </mxCell>
        <mxCell id="9aIz3eH4mraqbj3gu_Gu-31" style="edgeStyle=orthogonalEdgeStyle;rounded=0;orthogonalLoop=1;jettySize=auto;html=1;exitX=1;exitY=0.5;exitDx=0;exitDy=0;entryX=0;entryY=0.5;entryDx=0;entryDy=0;fillColor=#dae8fc;strokeColor=#6c8ebf;" parent="1" source="9aIz3eH4mraqbj3gu_Gu-32" edge="1">
          <mxGeometry relative="1" as="geometry">
            <mxPoint x="421" y="540" as="targetPoint" />
          </mxGeometry>
        </mxCell>
        <mxCell id="9aIz3eH4mraqbj3gu_Gu-32" value="" style="ellipse;whiteSpace=wrap;html=1;aspect=fixed;fillColor=#66B2FF;strokeColor=#6c8ebf;" parent="1" vertex="1">
          <mxGeometry x="391" y="535" width="10" height="10" as="geometry" />
        </mxCell>
        <mxCell id="9aIz3eH4mraqbj3gu_Gu-106" style="edgeStyle=orthogonalEdgeStyle;rounded=0;orthogonalLoop=1;jettySize=auto;html=1;exitX=1;exitY=0.5;exitDx=0;exitDy=0;entryX=0;entryY=0.5;entryDx=0;entryDy=0;fillColor=#dae8fc;strokeColor=#6c8ebf;strokeWidth=2;" parent="1" source="9aIz3eH4mraqbj3gu_Gu-33" target="9aIz3eH4mraqbj3gu_Gu-62" edge="1">
          <mxGeometry relative="1" as="geometry" />
        </mxCell>
        <mxCell id="9aIz3eH4mraqbj3gu_Gu-33" value="" style="ellipse;whiteSpace=wrap;html=1;aspect=fixed;fillColor=#66B2FF;strokeColor=#6c8ebf;" parent="1" vertex="1">
          <mxGeometry x="391" y="231" width="10" height="10" as="geometry" />
        </mxCell>
        <mxCell id="9aIz3eH4mraqbj3gu_Gu-41" style="edgeStyle=orthogonalEdgeStyle;rounded=0;orthogonalLoop=1;jettySize=auto;html=1;exitX=1;exitY=0.5;exitDx=0;exitDy=0;entryX=0;entryY=0.5;entryDx=0;entryDy=0;fillColor=#dae8fc;strokeColor=#6c8ebf;" parent="1" source="9aIz3eH4mraqbj3gu_Gu-35" target="9aIz3eH4mraqbj3gu_Gu-25" edge="1">
          <mxGeometry relative="1" as="geometry">
            <Array as="points">
              <mxPoint x="310" y="540" />
              <mxPoint x="310" y="392" />
            </Array>
          </mxGeometry>
        </mxCell>
        <mxCell id="9aIz3eH4mraqbj3gu_Gu-35" value="" style="ellipse;whiteSpace=wrap;html=1;aspect=fixed;fillColor=#66B2FF;strokeColor=#6c8ebf;" parent="1" vertex="1">
          <mxGeometry x="291" y="535" width="10" height="10" as="geometry" />
        </mxCell>
        <mxCell id="9aIz3eH4mraqbj3gu_Gu-13" value="" style="ellipse;whiteSpace=wrap;html=1;aspect=fixed;fillColor=#66B2FF;strokeColor=#6c8ebf;" parent="1" vertex="1">
          <mxGeometry x="291" y="231" width="10" height="10" as="geometry" />
        </mxCell>
        <mxCell id="9aIz3eH4mraqbj3gu_Gu-43" value="Quantum&lt;div&gt;Channel&lt;/div&gt;" style="rounded=0;whiteSpace=wrap;html=1;" parent="1" vertex="1">
          <mxGeometry x="427" y="520" width="60" height="40" as="geometry" />
        </mxCell>
        <mxCell id="9aIz3eH4mraqbj3gu_Gu-44" value="" style="ellipse;whiteSpace=wrap;html=1;aspect=fixed;fillColor=#66B2FF;strokeColor=#6c8ebf;" parent="1" vertex="1">
          <mxGeometry x="422" y="535" width="10" height="10" as="geometry" />
        </mxCell>
        <mxCell id="9aIz3eH4mraqbj3gu_Gu-45" style="edgeStyle=orthogonalEdgeStyle;rounded=0;orthogonalLoop=1;jettySize=auto;html=1;exitX=1;exitY=0.5;exitDx=0;exitDy=0;fillColor=#dae8fc;strokeColor=#6c8ebf;" parent="1" source="9aIz3eH4mraqbj3gu_Gu-46" edge="1">
          <mxGeometry relative="1" as="geometry">
            <mxPoint x="507" y="540" as="targetPoint" />
          </mxGeometry>
        </mxCell>
        <mxCell id="9aIz3eH4mraqbj3gu_Gu-46" value="" style="ellipse;whiteSpace=wrap;html=1;aspect=fixed;fillColor=#66B2FF;strokeColor=#6c8ebf;" parent="1" vertex="1">
          <mxGeometry x="482" y="535" width="10" height="10" as="geometry" />
        </mxCell>
        <mxCell id="9aIz3eH4mraqbj3gu_Gu-47" value="" style="rounded=0;whiteSpace=wrap;html=1;" parent="1" vertex="1">
          <mxGeometry x="513" y="120" width="100" height="459" as="geometry" />
        </mxCell>
        <mxCell id="9aIz3eH4mraqbj3gu_Gu-48" value="&lt;b&gt;sw2&lt;/b&gt;" style="text;html=1;align=center;verticalAlign=middle;whiteSpace=wrap;rounded=0;" parent="1" vertex="1">
          <mxGeometry x="543" y="83" width="60" height="30" as="geometry" />
        </mxCell>
        <mxCell id="9aIz3eH4mraqbj3gu_Gu-49" value="MA" style="rounded=0;whiteSpace=wrap;html=1;fillColor=#dae8fc;strokeColor=#6c8ebf;" parent="1" vertex="1">
          <mxGeometry x="538" y="347" width="30" height="30" as="geometry" />
        </mxCell>
        <mxCell id="9aIz3eH4mraqbj3gu_Gu-50" value="MB" style="rounded=0;whiteSpace=wrap;html=1;fillColor=#dae8fc;strokeColor=#6c8ebf;" parent="1" vertex="1">
          <mxGeometry x="538" y="377" width="30" height="30" as="geometry" />
        </mxCell>
        <mxCell id="9aIz3eH4mraqbj3gu_Gu-51" value="&lt;div&gt;QSource&lt;br&gt;&lt;/div&gt;" style="rounded=0;whiteSpace=wrap;html=1;rotation=-90;fillColor=none;labelPosition=center;verticalLabelPosition=top;align=center;verticalAlign=bottom;labelBackgroundColor=default;" parent="1" vertex="1">
          <mxGeometry x="529.63" y="498.63" width="83.75" height="39" as="geometry" />
        </mxCell>
        <mxCell id="9aIz3eH4mraqbj3gu_Gu-52" style="edgeStyle=orthogonalEdgeStyle;rounded=0;orthogonalLoop=1;jettySize=auto;html=1;exitX=1;exitY=0.5;exitDx=0;exitDy=0;entryX=1;entryY=0.5;entryDx=0;entryDy=0;fillColor=#dae8fc;strokeColor=#6c8ebf;" parent="1" source="9aIz3eH4mraqbj3gu_Gu-53" target="9aIz3eH4mraqbj3gu_Gu-49" edge="1">
          <mxGeometry relative="1" as="geometry">
            <Array as="points">
              <mxPoint x="597" y="510" />
              <mxPoint x="597" y="362" />
            </Array>
          </mxGeometry>
        </mxCell>
        <mxCell id="9aIz3eH4mraqbj3gu_Gu-53" value="Q0" style="rounded=0;whiteSpace=wrap;html=1;fillColor=#dae8fc;strokeColor=#6c8ebf;" parent="1" vertex="1">
          <mxGeometry x="557" y="495" width="30" height="30" as="geometry" />
        </mxCell>
        <mxCell id="9aIz3eH4mraqbj3gu_Gu-54" style="edgeStyle=orthogonalEdgeStyle;rounded=0;orthogonalLoop=1;jettySize=auto;html=1;exitX=1;exitY=0.5;exitDx=0;exitDy=0;entryX=0;entryY=0.5;entryDx=0;entryDy=0;fillColor=#dae8fc;strokeColor=#6c8ebf;" parent="1" source="9aIz3eH4mraqbj3gu_Gu-55" target="9aIz3eH4mraqbj3gu_Gu-57" edge="1">
          <mxGeometry relative="1" as="geometry" />
        </mxCell>
        <mxCell id="9aIz3eH4mraqbj3gu_Gu-55" value="Q1" style="rounded=0;whiteSpace=wrap;html=1;fillColor=#dae8fc;strokeColor=#6c8ebf;" parent="1" vertex="1">
          <mxGeometry x="557" y="525" width="30" height="30" as="geometry" />
        </mxCell>
        <mxCell id="9aIz3eH4mraqbj3gu_Gu-57" value="" style="ellipse;whiteSpace=wrap;html=1;aspect=fixed;fillColor=#66B2FF;strokeColor=#6c8ebf;" parent="1" vertex="1">
          <mxGeometry x="608" y="535" width="10" height="10" as="geometry" />
        </mxCell>
        <mxCell id="9aIz3eH4mraqbj3gu_Gu-58" value="" style="ellipse;whiteSpace=wrap;html=1;aspect=fixed;fillColor=#66B2FF;strokeColor=#6c8ebf;" parent="1" vertex="1">
          <mxGeometry x="608" y="231" width="10" height="10" as="geometry" />
        </mxCell>
        <mxCell id="9aIz3eH4mraqbj3gu_Gu-60" style="edgeStyle=orthogonalEdgeStyle;rounded=0;orthogonalLoop=1;jettySize=auto;html=1;exitX=1;exitY=0.5;exitDx=0;exitDy=0;entryX=0;entryY=0.5;entryDx=0;entryDy=0;fillColor=#dae8fc;strokeColor=#6c8ebf;" parent="1" source="9aIz3eH4mraqbj3gu_Gu-61" target="9aIz3eH4mraqbj3gu_Gu-50" edge="1">
          <mxGeometry relative="1" as="geometry">
            <Array as="points">
              <mxPoint x="527" y="540" />
              <mxPoint x="527" y="392" />
            </Array>
          </mxGeometry>
        </mxCell>
        <mxCell id="9aIz3eH4mraqbj3gu_Gu-61" value="" style="ellipse;whiteSpace=wrap;html=1;aspect=fixed;fillColor=#66B2FF;strokeColor=#6c8ebf;" parent="1" vertex="1">
          <mxGeometry x="508" y="535" width="10" height="10" as="geometry" />
        </mxCell>
        <mxCell id="9aIz3eH4mraqbj3gu_Gu-62" value="" style="ellipse;whiteSpace=wrap;html=1;aspect=fixed;fillColor=#66B2FF;strokeColor=#6c8ebf;" parent="1" vertex="1">
          <mxGeometry x="508" y="231" width="10" height="10" as="geometry" />
        </mxCell>
        <mxCell id="9aIz3eH4mraqbj3gu_Gu-63" value="&lt;b&gt;&lt;font style=&quot;font-size: 18px;&quot;&gt;...&lt;/font&gt;&lt;/b&gt;" style="rounded=0;whiteSpace=wrap;html=1;strokeColor=none;" parent="1" vertex="1">
          <mxGeometry x="641" y="239" width="60" height="321" as="geometry" />
        </mxCell>
        <mxCell id="9aIz3eH4mraqbj3gu_Gu-67" value="" style="rounded=0;whiteSpace=wrap;html=1;" parent="1" vertex="1">
          <mxGeometry x="727" y="120" width="100" height="459" as="geometry" />
        </mxCell>
        <mxCell id="9aIz3eH4mraqbj3gu_Gu-68" value="&lt;b&gt;swN&lt;/b&gt;" style="text;html=1;align=center;verticalAlign=middle;whiteSpace=wrap;rounded=0;" parent="1" vertex="1">
          <mxGeometry x="756" y="83" width="60" height="30" as="geometry" />
        </mxCell>
        <mxCell id="9aIz3eH4mraqbj3gu_Gu-69" value="MA" style="rounded=0;whiteSpace=wrap;html=1;fillColor=#dae8fc;strokeColor=#6c8ebf;" parent="1" vertex="1">
          <mxGeometry x="752" y="347" width="30" height="30" as="geometry" />
        </mxCell>
        <mxCell id="9aIz3eH4mraqbj3gu_Gu-70" value="MB" style="rounded=0;whiteSpace=wrap;html=1;fillColor=#dae8fc;strokeColor=#6c8ebf;" parent="1" vertex="1">
          <mxGeometry x="752" y="377" width="30" height="30" as="geometry" />
        </mxCell>
        <mxCell id="9aIz3eH4mraqbj3gu_Gu-71" value="&lt;div&gt;QSource&lt;br&gt;&lt;/div&gt;" style="rounded=0;whiteSpace=wrap;html=1;rotation=-90;fillColor=none;labelPosition=center;verticalLabelPosition=top;align=center;verticalAlign=bottom;labelBackgroundColor=default;" parent="1" vertex="1">
          <mxGeometry x="745.63" y="500.63" width="79.75" height="39" as="geometry" />
        </mxCell>
        <mxCell id="9aIz3eH4mraqbj3gu_Gu-72" style="edgeStyle=orthogonalEdgeStyle;rounded=0;orthogonalLoop=1;jettySize=auto;html=1;exitX=1;exitY=0.5;exitDx=0;exitDy=0;entryX=1;entryY=0.5;entryDx=0;entryDy=0;fillColor=#dae8fc;strokeColor=#6c8ebf;" parent="1" source="9aIz3eH4mraqbj3gu_Gu-73" target="9aIz3eH4mraqbj3gu_Gu-69" edge="1">
          <mxGeometry relative="1" as="geometry">
            <Array as="points">
              <mxPoint x="811" y="510" />
              <mxPoint x="811" y="362" />
            </Array>
          </mxGeometry>
        </mxCell>
        <mxCell id="9aIz3eH4mraqbj3gu_Gu-73" value="Q0" style="rounded=0;whiteSpace=wrap;html=1;fillColor=#dae8fc;strokeColor=#6c8ebf;" parent="1" vertex="1">
          <mxGeometry x="771" y="495" width="30" height="30" as="geometry" />
        </mxCell>
        <mxCell id="9aIz3eH4mraqbj3gu_Gu-74" style="edgeStyle=orthogonalEdgeStyle;rounded=0;orthogonalLoop=1;jettySize=auto;html=1;exitX=1;exitY=0.5;exitDx=0;exitDy=0;entryX=0;entryY=0.5;entryDx=0;entryDy=0;fillColor=#dae8fc;strokeColor=#6c8ebf;" parent="1" source="9aIz3eH4mraqbj3gu_Gu-75" target="9aIz3eH4mraqbj3gu_Gu-77" edge="1">
          <mxGeometry relative="1" as="geometry" />
        </mxCell>
        <mxCell id="9aIz3eH4mraqbj3gu_Gu-75" value="Q1" style="rounded=0;whiteSpace=wrap;html=1;fillColor=#dae8fc;strokeColor=#6c8ebf;" parent="1" vertex="1">
          <mxGeometry x="771" y="525" width="30" height="30" as="geometry" />
        </mxCell>
        <mxCell id="9aIz3eH4mraqbj3gu_Gu-76" style="edgeStyle=orthogonalEdgeStyle;rounded=0;orthogonalLoop=1;jettySize=auto;html=1;exitX=1;exitY=0.5;exitDx=0;exitDy=0;entryX=0;entryY=0.5;entryDx=0;entryDy=0;fillColor=#dae8fc;strokeColor=#6c8ebf;" parent="1" source="9aIz3eH4mraqbj3gu_Gu-77" edge="1">
          <mxGeometry relative="1" as="geometry">
            <mxPoint x="852" y="540" as="targetPoint" />
          </mxGeometry>
        </mxCell>
        <mxCell id="9aIz3eH4mraqbj3gu_Gu-77" value="" style="ellipse;whiteSpace=wrap;html=1;aspect=fixed;fillColor=#66B2FF;strokeColor=#6c8ebf;" parent="1" vertex="1">
          <mxGeometry x="822" y="535" width="10" height="10" as="geometry" />
        </mxCell>
        <mxCell id="9aIz3eH4mraqbj3gu_Gu-108" style="edgeStyle=orthogonalEdgeStyle;rounded=0;orthogonalLoop=1;jettySize=auto;html=1;exitX=1;exitY=0.5;exitDx=0;exitDy=0;fillColor=#dae8fc;strokeColor=#6c8ebf;strokeWidth=2;" parent="1" source="9aIz3eH4mraqbj3gu_Gu-78" target="9aIz3eH4mraqbj3gu_Gu-107" edge="1">
          <mxGeometry relative="1" as="geometry" />
        </mxCell>
        <mxCell id="9aIz3eH4mraqbj3gu_Gu-78" value="" style="ellipse;whiteSpace=wrap;html=1;aspect=fixed;fillColor=#66B2FF;strokeColor=#6c8ebf;" parent="1" vertex="1">
          <mxGeometry x="822" y="231" width="10" height="10" as="geometry" />
        </mxCell>
        <mxCell id="9aIz3eH4mraqbj3gu_Gu-79" style="edgeStyle=orthogonalEdgeStyle;rounded=0;orthogonalLoop=1;jettySize=auto;html=1;exitX=1;exitY=0.5;exitDx=0;exitDy=0;entryX=0;entryY=0.5;entryDx=0;entryDy=0;fillColor=#dae8fc;strokeColor=#6c8ebf;" parent="1" source="9aIz3eH4mraqbj3gu_Gu-80" target="9aIz3eH4mraqbj3gu_Gu-70" edge="1">
          <mxGeometry relative="1" as="geometry">
            <Array as="points">
              <mxPoint x="741" y="540" />
              <mxPoint x="741" y="392" />
            </Array>
          </mxGeometry>
        </mxCell>
        <mxCell id="9aIz3eH4mraqbj3gu_Gu-80" value="" style="ellipse;whiteSpace=wrap;html=1;aspect=fixed;fillColor=#66B2FF;strokeColor=#6c8ebf;" parent="1" vertex="1">
          <mxGeometry x="722" y="535" width="10" height="10" as="geometry" />
        </mxCell>
        <mxCell id="9aIz3eH4mraqbj3gu_Gu-81" value="" style="ellipse;whiteSpace=wrap;html=1;aspect=fixed;fillColor=#66B2FF;strokeColor=#6c8ebf;" parent="1" vertex="1">
          <mxGeometry x="722" y="231" width="10" height="10" as="geometry" />
        </mxCell>
        <mxCell id="9aIz3eH4mraqbj3gu_Gu-82" value="" style="rounded=0;whiteSpace=wrap;html=1;" parent="1" vertex="1">
          <mxGeometry x="944" y="120" width="100" height="459" as="geometry" />
        </mxCell>
        <mxCell id="9aIz3eH4mraqbj3gu_Gu-83" value="&lt;b&gt;nodeB&lt;/b&gt;" style="text;html=1;align=center;verticalAlign=middle;whiteSpace=wrap;rounded=0;" parent="1" vertex="1">
          <mxGeometry x="974" y="83" width="60" height="30" as="geometry" />
        </mxCell>
        <mxCell id="9aIz3eH4mraqbj3gu_Gu-85" value="M0" style="rounded=0;whiteSpace=wrap;html=1;fillColor=#dae8fc;strokeColor=#6c8ebf;" parent="1" vertex="1">
          <mxGeometry x="1006" y="343" width="30" height="30" as="geometry" />
        </mxCell>
        <mxCell id="9aIz3eH4mraqbj3gu_Gu-86" value="M1" style="rounded=0;whiteSpace=wrap;html=1;fillColor=none;strokeColor=#6c8ebf;" parent="1" vertex="1">
          <mxGeometry x="1006" y="373" width="30" height="30" as="geometry" />
        </mxCell>
        <mxCell id="9aIz3eH4mraqbj3gu_Gu-94" value="Quantum&lt;div&gt;Channel&lt;/div&gt;" style="rounded=0;whiteSpace=wrap;html=1;" parent="1" vertex="1">
          <mxGeometry x="855" y="520" width="60" height="40" as="geometry" />
        </mxCell>
        <mxCell id="9aIz3eH4mraqbj3gu_Gu-95" value="" style="ellipse;whiteSpace=wrap;html=1;aspect=fixed;fillColor=#66B2FF;strokeColor=#6c8ebf;" parent="1" vertex="1">
          <mxGeometry x="850" y="535" width="10" height="10" as="geometry" />
        </mxCell>
        <mxCell id="9aIz3eH4mraqbj3gu_Gu-98" style="edgeStyle=orthogonalEdgeStyle;rounded=0;orthogonalLoop=1;jettySize=auto;html=1;exitX=1;exitY=0.5;exitDx=0;exitDy=0;entryX=0;entryY=0.5;entryDx=0;entryDy=0;fillColor=#dae8fc;strokeColor=#6c8ebf;" parent="1" source="9aIz3eH4mraqbj3gu_Gu-96" target="9aIz3eH4mraqbj3gu_Gu-97" edge="1">
          <mxGeometry relative="1" as="geometry" />
        </mxCell>
        <mxCell id="9aIz3eH4mraqbj3gu_Gu-96" value="" style="ellipse;whiteSpace=wrap;html=1;aspect=fixed;fillColor=#66B2FF;strokeColor=#6c8ebf;" parent="1" vertex="1">
          <mxGeometry x="910" y="535" width="10" height="10" as="geometry" />
        </mxCell>
        <mxCell id="9aIz3eH4mraqbj3gu_Gu-103" style="edgeStyle=orthogonalEdgeStyle;rounded=0;orthogonalLoop=1;jettySize=auto;html=1;exitX=1;exitY=0.5;exitDx=0;exitDy=0;entryX=0;entryY=0.5;entryDx=0;entryDy=0;fillColor=#dae8fc;strokeColor=#6c8ebf;" parent="1" source="9aIz3eH4mraqbj3gu_Gu-97" target="9aIz3eH4mraqbj3gu_Gu-85" edge="1">
          <mxGeometry relative="1" as="geometry" />
        </mxCell>
        <mxCell id="9aIz3eH4mraqbj3gu_Gu-97" value="" style="ellipse;whiteSpace=wrap;html=1;aspect=fixed;fillColor=#66B2FF;strokeColor=#6c8ebf;" parent="1" vertex="1">
          <mxGeometry x="939" y="535" width="10" height="10" as="geometry" />
        </mxCell>
        <mxCell id="9aIz3eH4mraqbj3gu_Gu-99" style="edgeStyle=orthogonalEdgeStyle;rounded=0;orthogonalLoop=1;jettySize=auto;html=1;exitX=1;exitY=0.5;exitDx=0;exitDy=0;entryX=0;entryY=0.5;entryDx=0;entryDy=0;fillColor=#dae8fc;strokeColor=#6c8ebf;" parent="1" edge="1">
          <mxGeometry relative="1" as="geometry">
            <mxPoint x="703" y="540" as="sourcePoint" />
            <mxPoint x="722" y="540" as="targetPoint" />
          </mxGeometry>
        </mxCell>
        <mxCell id="9aIz3eH4mraqbj3gu_Gu-100" style="edgeStyle=orthogonalEdgeStyle;rounded=0;orthogonalLoop=1;jettySize=auto;html=1;exitX=1;exitY=0.5;exitDx=0;exitDy=0;entryX=0;entryY=0.5;entryDx=0;entryDy=0;fillColor=#dae8fc;strokeColor=#6c8ebf;" parent="1" edge="1">
          <mxGeometry relative="1" as="geometry">
            <mxPoint x="619" y="539" as="sourcePoint" />
            <mxPoint x="638" y="539" as="targetPoint" />
          </mxGeometry>
        </mxCell>
        <mxCell id="9aIz3eH4mraqbj3gu_Gu-101" style="edgeStyle=orthogonalEdgeStyle;rounded=0;orthogonalLoop=1;jettySize=auto;html=1;exitX=1;exitY=0.5;exitDx=0;exitDy=0;entryX=0;entryY=0.5;entryDx=0;entryDy=0;fillColor=#dae8fc;strokeColor=#6c8ebf;strokeWidth=2;" parent="1" edge="1">
          <mxGeometry relative="1" as="geometry">
            <mxPoint x="619" y="236" as="sourcePoint" />
            <mxPoint x="638" y="236" as="targetPoint" />
          </mxGeometry>
        </mxCell>
        <mxCell id="9aIz3eH4mraqbj3gu_Gu-102" style="edgeStyle=orthogonalEdgeStyle;rounded=0;orthogonalLoop=1;jettySize=auto;html=1;exitX=1;exitY=0.5;exitDx=0;exitDy=0;entryX=0;entryY=0.5;entryDx=0;entryDy=0;fillColor=#dae8fc;strokeColor=#6c8ebf;strokeWidth=2;" parent="1" edge="1">
          <mxGeometry relative="1" as="geometry">
            <mxPoint x="704" y="236" as="sourcePoint" />
            <mxPoint x="723" y="236" as="targetPoint" />
          </mxGeometry>
        </mxCell>
        <mxCell id="9aIz3eH4mraqbj3gu_Gu-107" value="" style="ellipse;whiteSpace=wrap;html=1;aspect=fixed;fillColor=#66B2FF;strokeColor=#6c8ebf;" parent="1" vertex="1">
          <mxGeometry x="939" y="231" width="10" height="10" as="geometry" />
        </mxCell>
        <mxCell id="9aIz3eH4mraqbj3gu_Gu-109" value="classical" style="text;html=1;align=center;verticalAlign=middle;whiteSpace=wrap;rounded=0;" parent="1" vertex="1">
          <mxGeometry x="205" y="211" width="60" height="30" as="geometry" />
        </mxCell>
        <mxCell id="9aIz3eH4mraqbj3gu_Gu-110" value="classical" style="text;html=1;align=center;verticalAlign=middle;whiteSpace=wrap;rounded=0;" parent="1" vertex="1">
          <mxGeometry x="422" y="209" width="60" height="30" as="geometry" />
        </mxCell>
        <mxCell id="9aIz3eH4mraqbj3gu_Gu-111" value="classical" style="text;html=1;align=center;verticalAlign=middle;whiteSpace=wrap;rounded=0;" parent="1" vertex="1">
          <mxGeometry x="855" y="209" width="60" height="30" as="geometry" />
        </mxCell>
        <mxCell id="9aIz3eH4mraqbj3gu_Gu-115" value="ccon_L_sw1_path1_1" style="text;html=1;align=center;verticalAlign=middle;whiteSpace=wrap;rounded=0;fontSize=11;rotation=-90;" parent="1" vertex="1">
          <mxGeometry x="185" y="313" width="150" height="30" as="geometry" />
        </mxCell>
        <mxCell id="9aIz3eH4mraqbj3gu_Gu-112" value="ccon_R_nodeA_path1_1" style="text;html=1;align=center;verticalAlign=middle;whiteSpace=wrap;rounded=0;fontSize=11;rotation=-90;" parent="1" vertex="1">
          <mxGeometry x="136.13" y="319" width="147.75" height="30" as="geometry" />
        </mxCell>
        <mxCell id="9aIz3eH4mraqbj3gu_Gu-123" value="" style="endArrow=classic;html=1;rounded=0;entryX=1;entryY=1;entryDx=0;entryDy=0;" parent="1" target="9aIz3eH4mraqbj3gu_Gu-12" edge="1">
          <mxGeometry width="50" height="50" relative="1" as="geometry">
            <mxPoint x="200" y="269" as="sourcePoint" />
            <mxPoint x="350" y="349" as="targetPoint" />
          </mxGeometry>
        </mxCell>
        <mxCell id="9aIz3eH4mraqbj3gu_Gu-124" value="" style="endArrow=classic;html=1;rounded=0;" parent="1" edge="1">
          <mxGeometry width="50" height="50" relative="1" as="geometry">
            <mxPoint x="270" y="269" as="sourcePoint" />
            <mxPoint x="290" y="239" as="targetPoint" />
          </mxGeometry>
        </mxCell>
        <mxCell id="bTAhUa1jSER5jqgThFil-4" value="Text" style="text;html=1;align=center;verticalAlign=middle;whiteSpace=wrap;rounded=0;" parent="1" vertex="1">
          <mxGeometry x="370" y="379" width="60" height="30" as="geometry" />
        </mxCell>
        <mxCell id="bTAhUa1jSER5jqgThFil-8" value="SwapProtocol_sw1_req_1" style="rounded=0;whiteSpace=wrap;html=1;rotation=-90;fillColor=#f5f5f5;fontColor=#333333;strokeColor=#666666;" parent="1" vertex="1">
          <mxGeometry x="257" y="205" width="170" height="26" as="geometry" />
        </mxCell>
        <mxCell id="bTAhUa1jSER5jqgThFil-10" value="SwapProtocol_sw2_req_1" style="rounded=0;whiteSpace=wrap;html=1;rotation=-90;fillColor=#f5f5f5;fontColor=#333333;strokeColor=#666666;" parent="1" vertex="1">
          <mxGeometry x="478" y="205" width="170" height="26" as="geometry" />
        </mxCell>
        <mxCell id="bTAhUa1jSER5jqgThFil-11" value="SwapProtocol_swN_req_1" style="rounded=0;whiteSpace=wrap;html=1;rotation=-90;fillColor=#f5f5f5;fontColor=#333333;strokeColor=#666666;" parent="1" vertex="1">
          <mxGeometry x="692" y="205" width="170" height="26" as="geometry" />
        </mxCell>
        <mxCell id="bTAhUa1jSER5jqgThFil-12" value="CorrectProtocol_req_1" style="rounded=0;whiteSpace=wrap;html=1;rotation=-90;fillColor=#f5f5f5;fontColor=#333333;strokeColor=#666666;" parent="1" vertex="1">
          <mxGeometry x="909" y="203" width="170" height="26" as="geometry" />
        </mxCell>
      </root>
    </mxGraphModel>
  </diagram>
</mxfile>
